# xmcd
#
# Track frame offsets: 
#        150
#        13351
#        27191
#        43649
#        56949
#        69891
#        83346
#        94647
#        107343
#        119971
#        134269
#        147820
#        161896
#        174005
#
# Disc length: 2502 seconds
#
# Revision: 0
# Processed by: cddbd v1.5.2PL0 Copyright (c) Steve Scherf et al.
# Submitted via: ExactAudioCopyFreeDBPlugin 1.0
#
DISCID=b509c40e
DTITLE=B.B. King - Anthology - Dejavu Definitive Gold [Disc 4]
DYEAR=2010
DGENRE=General Electric Blues
TTITLE0=The Woman I Love
TTITLE1=Three O'Clock Blues
TTITLE2=Troubles, Troubles, Troubles
TTITLE3=Walking And Cryin'
TTITLE4=What I can Do ?
TTITLE5=When My Heart Beats Like A Hammer
TTITLE6=When Your Baby Packs Up And Goes
TTITLE7=Why Do Everything Happen To Me ?
TTITLE8=Why I Sing The Blues
TTITLE9=Whole Lotta Love
TTITLE10=Woke Up This Morning
TTITLE11=You Know I Love You
TTITLE12=Y Know I Go For You
TTITLE13=You Upset Me Baby
EXTD=
EXTT0=
EXTT1=
EXTT2=
EXTT3=
EXTT4=
EXTT5=
EXTT6=
EXTT7=
EXTT8=
EXTT9=
EXTT10=
EXTT11=
EXTT12=
EXTT13=
PLAYORDER=
